# xmcd
#
# Track frame offsets:
#	150
#	19082
#	37527
#	59277
#	78080
#	98647
#	119952
#	138940
#	156967
#	177352
#
# Disc length: 2763 seconds
#
# Revision: 0
# Processed by: cddbd v1.5.1PL0 Copyright (c) Steve Scherf et al.
# Submitted via: audiograbber 1.82.02
#
DISCID=760ac90a
DTITLE=Van Morrison - Beautiful Vision
DYEAR=1982
DGENRE=Rock
TTITLE0=Celtic Ray
TTITLE1=Northern Muse (Solid Ground)
TTITLE2=Dweller On The Threshold
TTITLE3=Beautiful Vision
TTITLE4=She Gives Me Religion
TTITLE5=Cleaning Windows
TTITLE6=Vanlose Stairway
TTITLE7=Aryan Mist
TTITLE8=Across The Bridge Where Angels Dwell
TTITLE9=Scandinavia
EXTD=UPC 075992365222
EXTT0=
EXTT1=
EXTT2=
EXTT3=
EXTT4=
EXTT5=
EXTT6=
EXTT7=
EXTT8=
EXTT9=
PLAYORDER=
